<svg xmlns="http://www.w3.org/2000/svg" width="64" height="64" fill="none"><rect width="64" height="64" fill="#fff" rx="12"/><path fill="#000" d="M44.5 32a12.49 12.49 0 0 0-5.109-10.073l-.975-5.372a2.5 2.5 0 0 0-2.46-2.055h-7.912a2.5 2.5 0 0 0-2.46 2.055l-.974 5.372a12.483 12.483 0 0 0 0 20.146l.975 5.372a2.5 2.5 0 0 0 2.46 2.055h7.912a2.5 2.5 0 0 0 2.459-2.055l.975-5.372A12.49 12.49 0 0 0 44.501 32ZM28.044 17h7.913l.61 3.367a12.46 12.46 0 0 0-9.134 0L28.044 17ZM22 32a10 10 0 1 1 10 10 10.011 10.011 0 0 1-10-10Zm13.957 15h-7.913l-.61-3.367a12.46 12.46 0 0 0 9.134 0L35.957 47ZM30.75 32v-6.25a1.25 1.25 0 1 1 2.5 0v5h5a1.25 1.25 0 1 1 0 2.5H32A1.25 1.25 0 0 1 30.75 32Z"/></svg>